<svg width="70" height="30" viewBox="0 0 70 30" fill="none" xmlns="http://www.w3.org/2000/svg">
<path id="logo" fill-rule="evenodd" clip-rule="evenodd" d="M23.3067 0.685669H28.6029V28.8445H23.3067V0.685669ZM0 19.1941C0 13.6274 4.48833 9.09088 10.0359 9.09088C15.5655 9.09088 20.0718 13.6093 20.0718 19.1941C20.0718 24.7789 15.5835 29.2973 10.0359 29.2973C4.48833 29.2973 0 24.7608 0 19.1941ZM5.11669 19.2122C5.11669 21.9413 7.30699 24.1644 10.0359 24.1644C12.7468 24.1644 14.9551 21.9232 14.9551 19.1941C14.9551 16.465 12.7648 14.2419 10.0359 14.2419C7.30699 14.2419 5.11669 16.483 5.11669 19.2122ZM49.2996 16.8621C47.6659 16.1934 46.2116 15.5428 46.2116 14.3138C46.2116 13.3739 47.1093 12.8136 48.1147 12.8136C49.6048 12.8136 50.9872 13.5727 51.9926 14.4583L54.1829 10.4821C51.9746 9.14467 50.7179 8.63861 48.1147 8.63861C44.542 8.63861 41.1129 10.6629 41.1129 14.6752C41.1129 18.1273 43.6802 19.4828 46.0321 20.495C46.2518 20.5933 46.4695 20.6881 46.6827 20.781L46.683 20.7811C48.3512 21.508 49.7484 22.1167 49.7484 23.3506C49.7484 24.5435 48.3301 25.0857 47.2529 25.0857C45.3499 25.0857 44.129 24.2182 42.6389 22.7542L40.5204 26.5316C42.7287 28.3209 44.4522 29.2969 47.5043 29.2969C51.3104 29.2969 55.0267 27.3088 55.0267 22.953C55.0267 19.271 51.9611 17.9816 49.4566 16.9282L49.2996 16.8621ZM32.4931 9.09088H37.7893V28.8455H32.4931V9.09088ZM68.3642 24.1995C67.6999 24.5429 67.0536 24.7598 66.2457 24.7598C65.1326 24.7598 64.6837 24.0549 64.5401 22.8801C64.4683 22.3199 64.4683 21.7957 64.4683 21.1993V13.536H69.4593V9.08989H64.4503V4.7522H59.98L59.1541 9.10797H56.8022V13.536H59.1541V21.7596C59.1541 22.9163 59.2259 24.0911 59.5311 25.0671C60.2313 27.6155 62.2959 29.3144 65.348 29.3144C66.874 29.3144 68.7412 28.8987 69.9979 28.1577L68.3642 24.1995ZM32.4931 0.685669H37.7893V5.22218H32.4931V0.685669Z" fill="#0C29D0"/>
</svg>
